<?xml version="1.0" encoding="utf-8"?>
<!-- Generator: Adobe Illustrator 27.5.0, SVG Export Plug-In . SVG Version: 6.00 Build 0)  -->
<svg version="1.1" xmlns="http://www.w3.org/2000/svg" xmlns:xlink="http://www.w3.org/1999/xlink" x="0px" y="0px"
	 viewBox="0 0 500 500" style="enable-background:new 0 0 500 500;" xml:space="preserve">
<g id="BACKGROUND">
	<rect style="fill:#FFFFFF;" width="500" height="500"/>
</g>
<g id="OBJECTS">
	
		<ellipse transform="matrix(1 -0.0011 0.0011 1 -0.3917 0.27)" style="opacity:0.38;fill:#929497;" cx="253.672" cy="368.455" rx="196.498" ry="26.778"/>
	<g>
		<g>
			<path style="fill:#232944;" d="M163.511,171.834l66.103,67.587c2.587,2.645,2.54,6.886-0.105,9.472
				c-1.826,1.786-4.411,2.315-6.688,1.602c-1.021-0.317-1.983-0.888-2.784-1.707l-66.103-67.587L163.511,171.834z"/>
			<path style="fill:#45446C;" d="M160.222,175.051l63.723,65.154c2.587,2.645,2.54,6.886-0.105,9.472
				c-0.318,0.311-0.66,0.584-1.02,0.818c-1.021-0.317-1.983-0.888-2.784-1.707l-66.103-67.587L160.222,175.051z"/>
			<path style="fill:#739DC1;" d="M163.511,171.834l-9.577,9.367l-2.988-8.06l-1.311-3.54c-0.547-1.475,0.913-2.903,2.376-2.324
				l3.51,1.389L163.511,171.834z"/>
			<path style="fill:#232944;" d="M155.52,168.668l-4.574,4.474l-1.311-3.54c-0.547-1.475,0.913-2.903,2.376-2.324L155.52,168.668z"
				/>
			<path style="fill:#E6E7E8;" d="M197.962,219.88L197.962,219.88c-0.895,0.875-2.33,0.859-3.205-0.036l-25.977-26.56
				c-0.875-0.895-0.859-2.33,0.036-3.205l0,0c0.895-0.875,2.33-0.859,3.205,0.036l25.977,26.56
				C198.873,217.57,198.857,219.005,197.962,219.88z"/>
			<path style="fill:#E6E7E8;" d="M204.496,226.561L204.496,226.561c-0.895,0.875-2.33,0.859-3.205-0.036l-1.903-1.946
				c-0.875-0.895-0.859-2.33,0.036-3.205l0,0c0.895-0.875,2.33-0.859,3.205,0.036l1.903,1.946
				C205.407,224.251,205.391,225.686,204.496,226.561z"/>
		</g>
		<g>
			<path style="fill:#FC5C43;" d="M377.197,259.427c-1.065,3.307-0.182,5.991-2.779,8.794c-2.009,2.163-4.839,3.544-7.678,4.24
				c-2.025,0.494-3.968,0.59-5.802,0.347c-0.374-0.046-0.745-0.114-1.11-0.193c-5.174-1.079-9.439-4.857-12.202-9.845
				c-0.342-0.616-0.654-1.273-0.918-1.953c-1.026-2.703-1.239-5.774,0.872-8.017c0.741-0.787,1.669-1.383,2.374-2.207
				c2.413-2.803-0.666-4.887-1.783-7.326c-2.458-5.393,5.872-8.116,7.454-12.253c0.78-2.039,0.255-4.034,0.494-6.112
				c0.211-1.903,1.036-3.649,2.304-5.081c1.293-1.458,2.927-2.65,3.27-4.708c0.268-1.62-0.497-3.181-0.363-4.797
				c0.126-1.583,1.053-2.936,2.14-4.041c1.038-1.059,2.23-1.97,3.181-3.109c2.148-2.578,1.295-4.87,0.772-7.837
				c-0.28-1.583-0.079-3.014,0.35-4.575c1.122-4.086,3.12-8.101,4.811-11.978c-0.005-0.006-0.005-0.006,0.007-0.01
				c0.242-0.561,0.526-1.163,1.064-1.451c0.263-0.136,0.497-0.198,0.695-0.18c2.273,0.185,1.084,9.389,1.406,10.397
				c1.307,4.096,7.26,6.937,5.753,11.815c-0.296,0.967-0.881,1.813-1.317,2.728c-0.435,0.91-0.729,1.966-0.396,2.925
				c0.433,1.258,1.811,1.909,2.618,2.913c0.821,1.027,1.373,2.252,1.648,3.534c0.554,2.57,0.006,5.403-1.628,7.484
				c-1.867,2.376-5.822,4.246-5.669,7.718c0.158,3.655,4.586,5.226,5.336,8.675c1.01,4.652-5.307,5.99-5.281,10.227
				c0.008,0.929,0.511,1.788,1.112,2.494c1.227,1.443,3.313,2.794,3.32,4.907C381.26,255.627,377.981,256.983,377.197,259.427z"/>
			<g>
				<path style="fill:#FFFFFF;" d="M368.622,226.205c-0.208,1.27,0.202,2.537,0.632,3.878c0.363,1.112,0.733,2.27,0.758,3.478
					c0.04,2.183-1.032,4.078-2.065,5.915c-0.487,0.866-0.993,1.764-1.361,2.663c-0.994,2.43-1.096,5.178-1.195,7.842
					c-0.018,0.432-0.031,0.864-0.049,1.296c-0.341,7.394-1.818,14.62-4.404,21.531c-0.374-0.046-0.745-0.114-1.11-0.193
					c2.593-6.861,4.07-14.042,4.408-21.392c0.018-0.426,0.035-0.853,0.048-1.285c0.102-2.758,0.213-5.605,1.28-8.217
					c0.39-0.964,0.916-1.893,1.423-2.79c1.001-1.785,1.953-3.469,1.918-5.351c-0.019-1.047-0.351-2.073-0.705-3.162
					c-0.452-1.404-0.916-2.859-0.673-4.387c0.324-1.976,1.719-3.458,3.069-4.887c1.363-1.44,2.652-2.803,2.76-4.555
					c0.095-1.492-0.704-2.867-1.552-4.319c-0.895-1.54-1.819-3.133-1.698-4.966c0.126-1.822,1.243-3.252,2.323-4.635
					c0.909-1.16,1.762-2.259,2.055-3.548c0.398-1.758-0.342-3.595-1.054-5.373c-0.162-0.41-0.324-0.814-0.47-1.217
					c-1.624-4.387-1.743-9.289-0.375-13.752c-0.005-0.006-0.005-0.006,0.007-0.01c0.211-0.708,0.46-1.408,0.751-2.086l1.015,0.434
					c-0.001,0.006-0.007,0.016-0.008,0.021c-2.004,4.726-2.132,10.194-0.353,15.007c0.146,0.397,0.304,0.79,0.461,1.188
					c0.775,1.94,1.577,3.938,1.103,6.028c-0.344,1.535-1.316,2.784-2.263,3.99c-1.022,1.305-1.989,2.543-2.089,4.029
					c-0.096,1.497,0.704,2.873,1.551,4.336c0.891,1.528,1.815,3.116,1.7,4.945c-0.134,2.15-1.621,3.728-3.059,5.25
					C370.107,223.276,368.887,224.562,368.622,226.205z"/>
			</g>
		</g>
		<g>
			<path style="fill:#FC5C43;" d="M154.722,313.638c3.974,2.953,8,2.992,10.591,7.78c1.998,3.702,2.563,8.153,2.201,12.302
				c-0.261,2.959-1.022,5.624-2.191,7.987c-0.233,0.483-0.496,0.953-0.769,1.41c-3.827,6.486-10.879,10.509-18.876,11.95
				c-0.988,0.18-2.017,0.298-3.056,0.343c-4.117,0.145-8.358-0.975-10.416-4.851c-0.722-1.36-1.102-2.886-1.889-4.215
				c-2.676-4.541-6.898-1.342-10.701-0.953c-8.403,0.844-8.258-11.643-13.115-15.674c-2.394-1.987-5.325-2.193-8.02-3.468
				c-2.471-1.158-4.449-3.071-5.8-5.438c-1.374-2.412-2.234-5.163-4.853-6.569c-2.063-1.104-4.52-0.787-6.639-1.709
				c-2.079-0.896-3.479-2.766-4.471-4.739c-0.953-1.886-1.636-3.911-2.737-5.717c-2.494-4.079-5.977-3.979-10.22-4.634
				c-2.263-0.348-4.103-1.275-6.012-2.569c-4.999-3.386-9.5-7.922-13.955-11.981c-0.011,0.004-0.011,0.004-0.011-0.014
				c-0.646-0.583-1.327-1.242-1.47-2.101c-0.064-0.417-0.04-0.761,0.076-1.02c1.291-2.982,13.164,2.841,14.673,2.868
				c6.125,0.115,12.688-6.616,18.579-2.347c1.169,0.843,2.042,2.02,3.077,3.027c1.028,1.004,2.319,1.884,3.766,1.875
				c1.895-0.007,3.406-1.569,5.13-2.197c1.762-0.637,3.667-0.821,5.523-0.604c3.721,0.43,7.292,2.468,9.352,5.627
				c2.35,3.609,3.061,9.801,7.815,11.186c5.004,1.462,9.152-3.792,14.15-3.223c6.74,0.77,5.649,9.905,11.379,11.813
				c1.257,0.415,2.646,0.13,3.874-0.357c2.509-0.994,5.288-3.188,8.143-2.231C151.458,306.415,151.784,311.459,154.722,313.638z"/>
			<g>
				<path style="fill:#FFFFFF;" d="M105.968,309.98c1.618,0.862,3.515,0.89,5.521,0.924c1.667,0.02,3.398,0.052,5.04,0.571
					c2.963,0.946,5.029,3.261,7.034,5.497c0.945,1.054,1.924,2.148,2.969,3.056c2.823,2.456,6.484,3.851,10.033,5.206
					c0.574,0.222,1.152,0.438,1.726,0.66c9.819,3.85,18.892,9.154,27.032,15.811c-0.233,0.483-0.496,0.953-0.769,1.41
					c-8.068-6.643-17.081-11.928-26.842-15.752c-0.567-0.219-1.134-0.438-1.712-0.654c-3.675-1.402-7.464-2.856-10.5-5.493
					c-1.122-0.968-2.134-2.104-3.113-3.198c-1.95-2.168-3.785-4.225-6.34-5.04c-1.421-0.454-2.957-0.477-4.589-0.498
					c-2.102-0.033-4.278-0.074-6.228-1.102c-2.518-1.343-3.877-3.903-5.187-6.382c-1.318-2.499-2.567-4.863-4.88-5.812
					c-1.969-0.812-4.191-0.364-6.539,0.115c-2.488,0.502-5.06,1.018-7.479,0.014c-2.401-1.005-3.818-3.168-5.188-5.259
					c-1.149-1.758-2.24-3.412-3.846-4.399c-2.19-1.343-5.007-1.186-7.732-1.041c-0.627,0.03-1.247,0.064-1.857,0.076
					c-6.663,0.18-13.332-1.906-18.727-5.797c-0.011,0.004-0.011,0.004-0.011-0.014c-0.859-0.609-1.689-1.265-2.471-1.969
					l1.051-1.171c0.007,0.003,0.018,0.017,0.026,0.02c5.458,4.87,12.777,7.549,20.086,7.355c0.603-0.015,1.205-0.048,1.814-0.078
					c2.972-0.156,6.036-0.323,8.639,1.274c1.914,1.167,3.152,3.052,4.346,4.882c1.292,1.978,2.52,3.849,4.478,4.665
					c1.976,0.815,4.198,0.367,6.561-0.105c2.47-0.501,5.035-1.021,7.45-0.027c2.839,1.167,4.286,3.896,5.681,6.533
					C102.697,306.633,103.873,308.87,105.968,309.98z"/>
			</g>
		</g>
		<g>
			<path style="fill:#FED349;" d="M370.819,294.221c-2.988,3.266-3.388,6.843-7.882,8.712c-3.474,1.441-7.484,1.539-11.141,0.84
				c-2.607-0.501-4.909-1.42-6.904-2.675c-0.408-0.252-0.803-0.527-1.184-0.812c-5.421-3.993-8.358-10.631-8.912-17.873
				c-0.07-0.895-0.082-1.821-0.027-2.749c0.245-3.674,1.627-7.344,5.261-8.823c1.275-0.519,2.667-0.717,3.92-1.297
				c4.282-1.967,1.82-6.013,1.82-9.43c0.013-7.55,11.105-6.286,15.131-10.239c1.985-1.948,2.434-4.537,3.813-6.818
				c1.254-2.092,3.135-3.677,5.363-4.664c2.27-1.003,4.795-1.517,6.283-3.719c1.17-1.734,1.111-3.948,2.124-5.749
				c0.985-1.767,2.776-2.843,4.621-3.546c1.764-0.676,3.627-1.1,5.333-1.915c3.854-1.848,4.082-4.954,5.05-8.668
				c0.515-1.981,1.507-3.533,2.831-5.113c3.465-4.138,7.909-7.729,11.924-11.322c-0.003-0.01-0.003-0.01,0.013-0.009
				c0.577-0.522,1.225-1.068,2.002-1.117c0.377-0.019,0.68,0.034,0.9,0.16c2.534,1.419-3.723,11.45-3.884,12.788
				c-0.659,5.437,4.731,11.885,0.399,16.736c-0.856,0.963-1.982,1.633-2.972,2.462c-0.986,0.823-1.886,1.891-2.01,3.178
				c-0.166,1.686,1.085,3.172,1.487,4.762c0.406,1.625,0.397,3.336,0.035,4.967c-0.72,3.27-2.858,6.261-5.855,7.806
				c-3.423,1.762-8.995,1.831-10.658,5.934c-1.755,4.318,2.541,8.484,1.58,12.877c-1.297,5.924-9.323,4.124-11.54,9.046
				c-0.484,1.08-0.356,2.341-0.035,3.478c0.656,2.322,2.355,4.993,1.244,7.444C377.539,291.974,373.024,291.806,370.819,294.221z"/>
			<g>
				<path style="fill:#FFFFFF;" d="M378.502,251.194c-0.914,1.361-1.111,3.045-1.324,4.827c-0.169,1.481-0.355,3.017-0.966,4.431
					c-1.11,2.549-3.357,4.176-5.528,5.756c-1.023,0.745-2.085,1.516-2.988,2.363c-2.44,2.288-4.015,5.416-5.542,8.449
					c-0.25,0.491-0.494,0.985-0.744,1.475c-4.316,8.383-9.858,15.97-16.518,22.604c-0.408-0.252-0.803-0.527-1.184-0.812
					c6.641-6.572,12.16-14.107,16.448-22.44c0.246-0.484,0.493-0.969,0.737-1.463c1.581-3.141,3.219-6.379,5.84-8.839
					c0.963-0.909,2.065-1.707,3.127-2.478c2.106-1.537,4.102-2.982,5.059-5.181c0.533-1.222,0.693-2.587,0.86-4.036
					c0.221-1.866,0.455-3.798,1.546-5.439c1.423-2.117,3.824-3.094,6.147-4.033c2.342-0.945,4.558-1.841,5.613-3.812
					c0.901-1.677,0.704-3.694,0.492-5.826c-0.22-2.258-0.446-4.593,0.667-6.653c1.112-2.044,3.165-3.107,5.149-4.136
					c1.668-0.862,3.238-1.682,4.262-3.02c1.393-1.825,1.51-4.345,1.629-6.782c0.03-0.56,0.056-1.115,0.101-1.658
					c0.445-5.942,2.906-11.684,6.857-16.128c-0.003-0.01-0.003-0.01,0.013-0.009c0.62-0.709,1.279-1.387,1.976-2.018l0.946,1.041
					c-0.003,0.006-0.017,0.015-0.02,0.021c-4.827,4.411-7.875,10.677-8.366,17.195c-0.041,0.538-0.067,1.076-0.096,1.621
					c-0.132,2.658-0.262,5.398-1.918,7.567c-1.212,1.596-3.001,2.526-4.737,3.422c-1.876,0.969-3.652,1.891-4.556,3.559
					c-0.905,1.684-0.708,3.701-0.503,5.844c0.221,2.243,0.45,4.571-0.653,6.628c-1.295,2.419-3.855,3.458-6.327,4.459
					C381.776,248.589,379.68,249.431,378.502,251.194z"/>
			</g>
		</g>
		<g>
			<path style="fill:#FC5C43;" d="M156.09,270.603c0.345,4.413,2.684,7.148,0.981,11.708c-1.32,3.521-3.987,6.518-6.995,8.711
				c-2.147,1.562-4.39,2.616-6.669,3.216c-0.462,0.126-0.933,0.226-1.402,0.31c-6.618,1.233-13.473-1.155-19.142-5.696
				c-0.702-0.56-1.386-1.184-2.027-1.858c-2.516-2.688-4.254-6.204-2.852-9.868c0.492-1.285,1.297-2.438,1.73-3.749
				c1.487-4.471-3.149-5.436-5.646-7.77c-5.507-5.166,2.992-12.405,2.854-18.046c-0.068-2.78-1.651-4.876-2.376-7.441
				c-0.672-2.345-0.545-4.802,0.256-7.103c0.818-2.343,2.166-4.539,1.574-7.129c-0.468-2.039-2.125-3.508-2.749-5.477
				c-0.618-1.927-0.18-3.969,0.566-5.797c0.711-1.75,1.674-3.401,2.244-5.204c1.283-4.077-0.831-6.365-2.883-9.608
				c-1.096-1.729-1.552-3.514-1.801-5.56c-0.656-5.357-0.244-11.056-0.128-16.443c-0.009-0.005-0.009-0.005,0.003-0.016
				c0.013-0.778,0.057-1.624,0.551-2.225c0.244-0.288,0.489-0.474,0.732-0.548c2.767-0.882,5.821,10.539,6.689,11.571
				c3.522,4.195,11.912,4.661,12.498,11.139c0.119,1.283-0.161,2.563-0.231,3.852c-0.073,1.283,0.093,2.669,0.949,3.639
				c1.118,1.273,3.058,1.373,4.494,2.165c1.465,0.813,2.708,1.989,3.652,3.366c1.897,2.76,2.622,6.364,1.703,9.607
				c-1.051,3.704-4.805,7.821-2.945,11.838c1.955,4.231,7.932,3.938,10.486,7.64c3.441,4.993-3.355,9.626-1.273,14.607
				c0.458,1.091,1.467,1.859,2.517,2.401c2.144,1.107,5.256,1.69,6.288,4.175C159.038,264.159,155.831,267.343,156.09,270.603z"/>
			<g>
				<path style="fill:#FFFFFF;" d="M129.907,235.605c0.37,1.597,1.465,2.891,2.622,4.263c0.966,1.135,1.962,2.32,2.577,3.731
					c1.104,2.552,0.758,5.304,0.429,7.969c-0.154,1.256-0.317,2.559-0.315,3.796c0.005,3.345,1.215,6.631,2.387,9.819
					c0.188,0.518,0.382,1.033,0.569,1.551c3.176,8.878,4.933,18.107,5.23,27.503c-0.462,0.126-0.933,0.226-1.402,0.31
					c-0.265-9.339-1.999-18.517-5.159-27.341c-0.186-0.511-0.371-1.022-0.565-1.537c-1.214-3.3-2.461-6.708-2.468-10.303
					c-0.007-1.325,0.164-2.674,0.326-3.977c0.315-2.588,0.623-5.033-0.33-7.233c-0.529-1.224-1.417-2.273-2.361-3.385
					c-1.212-1.436-2.464-2.926-2.917-4.844c-0.575-2.485,0.352-4.906,1.252-7.245c0.909-2.356,1.768-4.587,1.048-6.703
					c-0.61-1.804-2.218-3.038-3.92-4.338c-1.8-1.381-3.66-2.811-4.404-5.031c-0.733-2.208-0.108-4.434,0.495-6.586
					c0.51-1.807,0.983-3.514,0.704-5.176c-0.382-2.264-2.143-4.07-3.842-5.822c-0.389-0.405-0.776-0.802-1.142-1.206
					c-4.037-4.384-6.55-10.103-7.098-16.024c-0.009-0.005-0.009-0.005,0.003-0.016c-0.095-0.937-0.14-1.881-0.125-2.822l1.407,0.02
					c0.002,0.007-0.001,0.022,0.001,0.029c-0.074,6.539,2.421,13.044,6.846,17.855c0.365,0.397,0.741,0.784,1.119,1.177
					c1.852,1.911,3.764,3.877,4.218,6.569c0.338,1.975-0.204,3.917-0.736,5.797c-0.573,2.033-1.113,3.959-0.512,5.758
					c0.612,1.811,2.22,3.044,3.926,4.359c1.789,1.37,3.647,2.793,4.396,5.004c0.882,2.598-0.107,5.178-1.064,7.666
					C130.24,231.434,129.424,233.541,129.907,235.605z"/>
			</g>
		</g>
		<g>
			<path style="fill:#FC5C43;" d="M296.147,355.025c-8.164,2.45-12.357,7.968-21.632,6.623c-7.165-1.048-13.892-4.844-19.248-9.61
				c-3.816-3.403-6.714-7.194-8.773-11.238c-0.427-0.819-0.806-1.664-1.156-2.511c-5.02-11.952-3.323-25.826,2.91-38.348
				c0.767-1.549,1.662-3.091,2.669-4.572c4.033-5.832,9.941-10.536,17.408-9.393c2.62,0.401,5.117,1.447,7.762,1.725
				c9.021,0.974,8.945-8.145,12.318-13.795c7.475-12.47,24.566,0.57,35.125-1.991c5.204-1.262,8.503-5.098,13.034-7.507
				c4.139-2.221,8.814-2.985,13.471-2.417c4.743,0.583,9.426,2.225,14.059,0.054c3.646-1.713,5.735-5.431,9.186-7.408
				c3.374-1.949,7.396-1.959,11.14-1.3c3.584,0.624,7.083,1.763,10.708,2.099c8.197,0.751,11.64-4.161,16.906-9.346
				c2.807-2.768,5.979-4.355,9.729-5.659c9.814-3.42,20.706-4.97,30.891-6.949c0.005-0.019,0.005-0.019,0.03-0.001
				c1.469-0.293,3.08-0.556,4.412,0.13c0.642,0.341,1.091,0.727,1.33,1.154c2.789,4.848-17.458,15.254-19.047,17.309
				c-6.457,8.339-3.912,24.32-15.862,28.064c-2.366,0.748-4.888,0.743-7.343,1.136c-2.443,0.387-4.986,1.264-6.461,3.271
				c-1.939,2.624-1.336,6.315-2.241,9.341c-0.933,3.088-2.637,5.908-4.844,8.246c-4.419,4.696-10.906,7.53-17.385,7.125
				c-7.399-0.466-16.68-5.852-23.479-0.711c-7.164,5.406-4.175,16.535-10.1,22.85c-7.992,8.514-19.485-2.385-28.009,3.564
				c-1.866,1.308-2.9,3.519-3.491,5.716c-1.208,4.486-1.035,10.58-5.292,13.536C309.476,357.945,302.176,353.208,296.147,355.025z"
				/>
			<g>
				<path style="fill:#FFFFFF;" d="M351.326,291.472c-2.855,1.348-4.844,3.938-6.953,6.673c-1.742,2.281-3.565,4.638-5.971,6.372
					c-4.353,3.119-9.673,3.59-14.823,4.059c-2.427,0.222-4.944,0.448-7.273,0.957c-6.293,1.373-11.984,4.991-17.504,8.498
					c-0.898,0.564-1.789,1.14-2.686,1.705c-15.411,9.599-32.063,16.672-49.624,21.065c-0.427-0.819-0.806-1.664-1.156-2.511
					c17.467-4.31,34.031-11.318,49.347-20.864c0.886-0.557,1.771-1.115,2.663-1.691c5.715-3.631,11.619-7.369,18.381-8.849
					c2.49-0.553,5.099-0.783,7.617-1.009c4.998-0.462,9.725-0.882,13.478-3.572c2.088-1.494,3.699-3.593,5.407-5.823
					c2.207-2.867,4.501-5.83,7.925-7.465c4.443-2.096,9.376-1.34,14.144-0.6c4.805,0.75,9.354,1.457,13.043-0.762
					c3.146-1.884,4.812-5.413,6.565-9.147c1.865-3.951,3.797-8.034,7.671-10.34c3.857-2.281,8.299-2.013,12.596-1.756
					c3.608,0.222,7.014,0.417,10.027-0.786c4.105-1.643,6.786-5.693,9.388-9.605c0.603-0.897,1.193-1.787,1.804-2.642
					c6.603-9.385,16.34-16.448,27.259-19.895c0.005-0.019,0.005-0.019,0.03-0.001c1.724-0.56,3.483-1.03,5.259-1.386l0.536,2.655
					c-0.012,0.007-0.042,0.008-0.054,0.015c-12.335,2.528-23.56,9.879-30.807,20.169c-0.599,0.848-1.173,1.713-1.758,2.585
					c-2.841,4.264-5.761,8.666-10.642,10.618c-3.579,1.442-7.455,1.214-11.21,0.981c-4.059-0.25-7.904-0.479-11.045,1.387
					c-3.158,1.89-4.823,5.419-6.601,9.166c-1.848,3.926-3.768,8.002-7.623,10.314c-4.529,2.72-9.787,1.912-14.861,1.126
					C359.311,290.397,355.013,289.721,351.326,291.472z"/>
			</g>
		</g>
		<g>
			<path style="fill:#FED349;" d="M188.212,296.034c3.982,5.381,9.174,7.012,10.646,14.224c1.131,5.573,0.114,11.553-1.983,16.778
				c-1.5,3.725-3.531,6.875-5.971,9.471c-0.492,0.533-1.015,1.038-1.548,1.522c-7.497,6.888-18.201,9.323-29.111,8.047
				c-1.348-0.155-2.726-0.406-4.088-0.756c-5.382-1.429-10.429-4.544-11.57-10.366c-0.4-2.043-0.292-4.166-0.789-6.194
				c-1.679-6.925-8.397-4.444-13.469-5.434c-11.202-2.208-6.111-18.305-10.811-25.426c-2.316-3.51-6.028-4.928-9.013-7.635
				c-2.742-2.468-4.549-5.719-5.368-9.311c-0.831-3.66-0.862-7.557-3.698-10.403c-2.235-2.239-5.538-2.793-7.917-4.818
				c-2.337-1.975-3.414-4.945-3.923-7.886c-0.492-2.814-0.581-5.702-1.296-8.471c-1.625-6.256-6.17-7.495-11.401-10.007
				c-2.792-1.338-4.808-3.26-6.768-5.684c-5.137-6.343-9.178-13.979-13.349-20.979c-0.015,0.001-0.015,0.001-0.009-0.022
				c-0.607-1.008-1.23-2.128-1.077-3.295c0.081-0.565,0.247-1,0.499-1.289c2.841-3.35,15.914,8.845,17.855,9.472
				c7.879,2.554,19.011-3.576,24.955,4.259c1.181,1.549,1.849,3.414,2.792,5.124c0.935,1.703,2.26,3.348,4.135,3.904
				c2.454,0.735,5.022-0.692,7.498-0.827c2.53-0.132,5.067,0.378,7.382,1.387c4.645,2.017,8.464,6.057,9.888,10.952
				c1.623,5.591,0.111,13.881,5.717,17.539c5.9,3.856,13.329-1.312,19.57,1.387c8.416,3.642,3.418,15.032,10.081,19.749
				c1.463,1.031,3.372,1.207,5.152,1.06c3.636-0.3,8.093-2.048,11.41,0.311C186.826,285.408,185.267,292.061,188.212,296.034z"/>
			<g>
				<path style="fill:#FFFFFF;" d="M126.578,272.158c1.755,1.751,4.198,2.532,6.78,3.364c2.148,0.681,4.375,1.401,6.296,2.718
					c3.462,2.387,5.225,6.193,6.941,9.874c0.809,1.734,1.646,3.535,2.641,5.12c2.688,4.285,6.875,7.528,10.934,10.675
					c0.656,0.513,1.318,1.018,1.974,1.532c11.191,8.836,20.845,19.26,28.76,31.068c-0.492,0.533-1.015,1.038-1.548,1.522
					c-7.829-11.761-17.412-22.137-28.538-30.917c-0.647-0.506-1.295-1.013-1.958-1.518c-4.203-3.257-8.535-6.626-11.426-11.23
					c-1.071-1.693-1.934-3.56-2.771-5.36c-1.671-3.571-3.238-6.952-6.223-9.01c-1.66-1.146-3.638-1.778-5.741-2.447
					c-2.706-0.868-5.505-1.776-7.624-3.871c-2.73-2.726-3.483-6.572-4.205-10.292c-0.724-3.75-1.411-7.299-4.031-9.435
					c-2.229-1.824-5.279-2.116-8.504-2.419c-3.416-0.327-6.946-0.669-9.68-2.919c-2.711-2.243-3.694-5.598-4.647-8.841
					c-0.795-2.725-1.557-5.294-3.247-7.201c-2.305-2.597-6.011-3.501-9.594-4.383c-0.823-0.207-1.638-0.407-2.432-0.631
					c-8.691-2.384-16.499-7.7-21.95-14.852c-0.015,0.001-0.015,0.001-0.009-0.022c-0.872-1.125-1.688-2.3-2.423-3.518l1.819-1.102
					c0.008,0.007,0.017,0.029,0.025,0.036c5.148,8.443,13.564,14.783,23.095,17.402c0.786,0.217,1.578,0.411,2.378,0.612
					c3.906,0.966,7.935,1.953,10.675,5.041c2.017,2.262,2.88,5.186,3.705,8.022c0.895,3.066,1.748,5.968,3.962,7.793
					c2.236,1.831,5.287,2.123,8.528,2.44c3.393,0.322,6.915,0.657,9.648,2.891c3.214,2.624,4.015,6.724,4.784,10.682
					C123.661,266.544,124.304,269.899,126.578,272.158z"/>
			</g>
		</g>
	</g>
	<g>
		<g>
			<path style="fill:#232944;" d="M335.997,170.652l37.309,116.841c1.749,5.479-1.272,11.358-6.765,13.112l-207.494,66.256
				c-3.356,1.072-6.875,0.346-9.473-1.653c-1.66-1.24-2.962-2.989-3.639-5.112l-37.309-116.841
				c-1.754-5.493,1.287-11.363,6.765-13.112l207.494-66.256c1.033-0.33,2.087-0.493,3.111-0.503
				C330.443,163.354,334.573,166.191,335.997,170.652z"/>
			<path style="fill:#45446C;" d="M329.644,168.524l37.304,116.827c1.754,5.493-1.287,11.363-6.765,13.112l-207.494,66.256
				c-1.033,0.33-2.087,0.493-3.115,0.489c-1.66-1.24-2.962-2.989-3.639-5.112l-37.309-116.841
				c-1.754-5.493,1.287-11.363,6.765-13.112l207.494-66.256c1.033-0.33,2.087-0.493,3.111-0.503
				C327.656,164.623,328.962,166.387,329.644,168.524z"/>
		</g>
		<g>
			<path style="fill:#F1B054;" d="M196.686,208.234l41.275,129.261l-72.081,23.016c-5.923,1.891-12.177-0.521-15.395-5.499
				c-0.63-0.984-1.15-2.067-1.521-3.228l-33.087-103.618c-2.262-7.085,1.643-14.653,8.727-16.915L196.686,208.234z"/>
			<path style="fill:#FCE6B5;" d="M144.684,224.839l30.477,95.444c4.297,13.457-3.129,27.849-16.585,32.146l-8.09,2.583
				c-0.63-0.984-1.15-2.067-1.521-3.228l-33.087-103.618c-2.261-7.081,1.646-14.654,8.727-16.915L144.684,224.839z"/>
			<path style="fill:#FFFFFF;" d="M142.876,298.273l-2.031,0.648c-0.845,0.27-1.748-0.196-2.018-1.041l-16.653-52.152
				c-0.27-0.845,0.196-1.748,1.041-2.018l2.031-0.648c0.845-0.27,1.748,0.196,2.018,1.041l16.653,52.152
				C144.186,297.099,143.72,298.003,142.876,298.273z"/>
			<path style="fill:#FFFFFF;" d="M146.995,311.173l-2.031,0.648c-0.845,0.27-1.748-0.196-2.018-1.041l-2.584-8.091
				c-0.27-0.845,0.196-1.748,1.041-2.018l2.031-0.648c0.845-0.27,1.748,0.196,2.018,1.041l2.584,8.091
				C148.306,310,147.84,310.904,146.995,311.173z"/>
			<path style="fill:#F1B054;" d="M312.805,171.235c-0.559,0.131-1.127,0.281-1.686,0.46l-83.353,26.616l-5.885,0.378l-61.546,3.943
				c-8.034,0.527-13.443,8.433-10.993,16.106l44.897,140.605c0.321,1.004,0.756,1.924,1.279,2.768
				c3.602,5.835,11.585,7.774,17.547,3.627l55.797-38.725l0.179,0.559l83.353-26.616c9.781-3.123,15.194-13.591,12.066-23.386
				l-29.954-93.808C331.555,174.524,322.081,169.205,312.805,171.235z"/>
			<path style="fill:#FCE6B5;" d="M221.88,198.688l30.189,94.544c5.361,16.788-0.864,35.109-15.341,45.157l-31.435,21.817
				c-3.012,2.1-6.556,2.631-9.775,1.904c-0.523-0.844-0.958-1.764-1.279-2.768l-44.897-140.605
				c-2.45-7.673,2.959-15.579,10.993-16.106L221.88,198.688z"/>
			<path style="fill:#FFFFFF;" d="M181.216,300.975l-23.287-72.929c-2.837-8.885,3.269-18.117,12.556-18.983l32.541-3.035
				c3.377-0.315,5.271,3.799,2.821,6.144c-11.288,10.806-27.013,35.65-21.246,88.068
				C184.831,302.334,181.857,302.982,181.216,300.975z"/>
			<path style="fill:#E6E7E8;" d="M193.146,329.558l-1.451,0.463c-0.603,0.193-1.249-0.14-1.441-0.744l-6.965-21.812
				c-0.193-0.604,0.14-1.249,0.744-1.441l1.451-0.463c0.603-0.193,1.249,0.14,1.442,0.744l6.965,21.812
				C194.082,328.72,193.749,329.366,193.146,329.558z"/>
			<path style="fill:#FCE6B5;" d="M317.432,178.797l29.954,93.808c3.126,9.79-2.276,20.26-12.066,23.386l-45.872,14.647
				c-12.938,4.131-26.776-3.008-30.907-15.946l-30.776-96.383l83.353-26.616c0.559-0.179,1.128-0.329,1.686-0.46
				C314.864,173.279,316.489,175.842,317.432,178.797z"/>
			<path style="fill:#FFFFFF;" d="M258.415,258.174l-2.031,0.648c-0.845,0.27-1.748-0.196-2.018-1.041l-16.653-52.152
				c-0.27-0.845,0.196-1.748,1.041-2.018l2.031-0.648c0.845-0.27,1.748,0.196,2.018,1.041l16.653,52.152
				C259.725,257.001,259.259,257.905,258.415,258.174z"/>
			<path style="fill:#FFFFFF;" d="M262.534,271.075l-2.031,0.648c-0.845,0.27-1.748-0.196-2.018-1.041l-2.583-8.091
				c-0.27-0.845,0.196-1.748,1.041-2.018l2.031-0.648c0.845-0.27,1.748,0.196,2.018,1.041l2.583,8.091
				C263.845,269.902,263.379,270.805,262.534,271.075z"/>
		</g>
	</g>
	<g>
		<path style="fill:#3F302B;" d="M181.074,233.98c0.653-0.1,1.323-0.145,2.004-0.131c2.816,0.056,6.574,0.682,7.804,3.615
			c0.279,0.666,0.388,1.393,0.38,2.112c-0.076,6.805-1.3,6.652-0.841,8.411c0.459,1.759,2.906,4.741,1.759,7.111
			c-1.147,2.37-2.829,2.906-4.435,4.664c-1.606,1.759,0.224,2.753-0.767,4.053c-0.992,1.3-4.279-4.205-4.279-4.205l-2.982-0.841
			l-0.963,2.906l-8.595,4.817c0,0-1.07-4.435-2.447-6.576c-1.376-2.141,2.676-3.594,2.676-5.123c0-1.529,1.988-4.129,0.688-7.264
			c-0.971-2.342,0.218-5.488,1.393-7.524C174.344,236.753,177.463,234.53,181.074,233.98z"/>
		<g>
			<g>
				<g>
					<path style="fill:#4E2357;" d="M193.033,369.831l13.389,3.742c0.696,0.195,1.178,0.829,1.178,1.552l0,0
						c0,0.88-0.707,1.598-1.587,1.611l-15.63,0.233c-1.117,0.017-2.022-0.904-1.986-2.021l0.164-5.117
						C188.559,369.831,192.344,368.856,193.033,369.831z"/>
					<path style="fill:#FFB49D;" d="M184.77,328.082l0.489,5.393l3.303,36.355c2.181,0.805,4.47,0,4.47,0v-41.748H184.77z"/>
					<path style="fill:#FF9682;" d="M193.031,328.082h-8.261l0.489,5.393c2.497-0.108,5.112-0.407,7.772-0.959V328.082z"/>
				</g>
				<g>
					<path style="fill:#4E2357;" d="M166.308,367.129l11.612,7.644c0.604,0.397,0.869,1.148,0.649,1.837l0,0
						c-0.268,0.839-1.16,1.306-2.003,1.051l-14.957-4.541c-1.069-0.325-1.65-1.477-1.276-2.53l1.715-4.824
						C162.048,365.766,165.95,365.991,166.308,367.129z"/>
					<path style="fill:#FFB49D;" d="M162.05,365.768c1.828,1.43,4.262,1.357,4.262,1.357l10.84-33.876l1.882-5.881l-7.872-2.516
						L169.569,332L162.05,365.768z"/>
					<path style="fill:#FF9682;" d="M169.569,332c2.072,0.479,4.651,0.95,7.582,1.249l1.882-5.881l-7.872-2.516L169.569,332z"/>
				</g>
			</g>
			<g>
				<path style="fill:#4E2357;" d="M171.689,291.241c0,0-7.005,28.337-7.464,36.71c0,0,18.007,6.882,35.785,0l-9.634-38.996
					L171.689,291.241z"/>
				<path style="fill:#471D4D;" d="M171.66,328.81c2.83,0.79,7.67,1.9,13.51,2.14c-11.75,0.52-20.95-3-20.95-3
					c0.46-8.37,7.47-36.71,7.47-36.71l18.69-2.29l0.14,0.56l-11.79,1.45c-1.38,0.17-2.51,1.17-2.84,2.52
					c-1.47,6.11-5.49,23.11-6.63,31.69C169.04,326.81,170.07,328.36,171.66,328.81z"/>
			</g>
		</g>
		<g>
			<path style="fill:#FF9682;" d="M183.259,262.815c1.254-0.967,3.078-0.662,4.11,0.54l12.167,14.177
				c0.899,1.048,2.286,1.543,3.645,1.301l18.715-3.324c1.602-0.285,3.128,0.793,3.396,2.398l0,0.001
				c0.264,1.581-0.795,3.08-2.373,3.36l-22.388,3.977c-0.056,0.01-0.111,0.006-0.167,0.013c-0.985,0.175-2.033-0.148-2.732-0.963
				l-14.809-17.255C181.737,265.773,181.922,263.846,183.259,262.815z"/>
			<g>
				<path style="fill:#0674BA;" d="M180.46,259.248L180.46,259.248c4.176,0,6.912,2.373,7.503,6.507l0.302,7.742
					c0.106,2.718,0.633,5.403,1.561,7.96l1.383,3.807c0.667,1.836,0.428,3.939-0.816,5.444c-0.96,1.161-2.387,1.935-4.026,2.013
					l-10.176,0.481c-3.361,0.159-6.093-2.677-5.808-6.029l1.717-20.244C172.467,262.586,176.101,259.248,180.46,259.248z"/>
				<path style="fill:#066AA9;" d="M178.66,293.08l-2.47,0.12c-3.36,0.16-6.09-2.67-5.81-6.03l1.72-20.24
					c0.37-4.34,4-7.68,8.36-7.68c0.72,0,1.41,0.07,2.04,0.22c-3.48,0.79-6.16,3.76-6.48,7.46l-1.72,20.24
					C174.06,290.03,176,292.5,178.66,293.08z"/>
			</g>
			<path style="fill:#FFB49D;" d="M156.457,277.76l16.738-15.146c1.174-1.063,3.022-1.136,4.145-0.019
				c1.197,1.191,1.138,3.126-0.098,4.245l-12.82,9.633c-0.207,0.155-0.101,0.484,0.158,0.49l16.599,0.331
				c1.667,0.009,3.001,1.412,2.903,3.098c-0.092,1.581-1.518,2.759-3.101,2.75l-22.573-0.126c-1.518-0.009-2.745-1.177-2.881-2.658
				c-0.003-0.019-0.003-0.038-0.005-0.057c-0.005-0.076-0.022-0.148-0.021-0.225v0c0-0.025,0.007-0.048,0.008-0.073
				C155.488,279.18,155.8,278.355,156.457,277.76z"/>
		</g>
		<g>
			<path style="fill:#FFAA82;" d="M178.752,251.92v6.868c0,1.276,1.031,2.316,2.307,2.316c1.276,0,2.316-1.04,2.316-2.316v-6.868
				H178.752z"/>
			<path style="fill:#FF9682;" d="M178.752,251.92v3.04c0.832,1.149,2.199,1.9,3.737,1.9c0.299,0,0.597-0.018,0.887-0.072v-4.868
				H178.752z"/>
			<path style="fill:#FFB49D;" d="M182.831,255.442L182.831,255.442c3.547,0,6.423-2.876,6.423-6.423v-6.882h-11.068v8.659
				C178.186,253.362,180.266,255.442,182.831,255.442z"/>
			<path style="fill:#3F302B;" d="M190.038,245.081c0,0-7.723,0.306-10.475-2.944l-2.141,2.952l-0.535-4.825
				c0,0,13.228,0.153,13.152,0.382C189.961,240.876,190.038,245.081,190.038,245.081z"/>
		</g>
	</g>
	<g>
		<g>
			<path style="fill:#7B1E2D;" d="M248.451,321.99v14.97c0,2.644,2.15,4.794,4.809,4.794h149.045c0.742,0,1.345-0.603,1.345-1.345
				c0-0.139-0.016-0.263-0.062-0.387c-0.139-0.51-0.557-0.882-1.083-0.943c-4.809-0.572-8.536-4.655-8.536-9.603
				s3.727-9.031,8.536-9.603c0.665-0.077,1.144-0.649,1.144-1.33c0-0.742-0.603-1.345-1.345-1.345H253.261
				C250.601,317.196,248.451,319.346,248.451,321.99z"/>
			<path style="fill:#BE1E2D;" d="M254.328,320.258v14.97c0,2.644,2.15,4.794,4.809,4.794H403.59
				c-0.139-0.51-0.557-0.882-1.083-0.943c-4.809-0.572-8.536-4.655-8.536-9.603s3.727-9.031,8.536-9.603
				c0.665-0.077,1.144-0.649,1.144-1.33c0-0.742-0.603-1.345-1.345-1.345H255.441C254.745,318.031,254.328,319.098,254.328,320.258z
				"/>
			<path style="fill:#F1B054;" d="M250.013,325.918v7.377c0,3.371,2.737,6.108,6.124,6.108h147.514v-0.263
				c-2.985,0-5.66-1.345-7.423-3.464c-1.407-1.686-2.258-3.835-2.258-6.201c0-3.959,2.382-7.361,5.799-8.861
				c1.191-0.51,2.505-0.804,3.882-0.804H256.137c-0.479,0-0.943,0.062-1.392,0.17C252.024,320.598,250.013,323.026,250.013,325.918z
				"/>
			<path style="fill:#FCE6B5;" d="M254.328,322.191v7.376c0,3.371,2.737,6.108,6.124,6.108h135.777
				c-1.407-1.686-2.258-3.835-2.258-6.201c0-3.959,2.382-7.361,5.799-8.861c0.17-0.278,0.356-0.541,0.572-0.804H256.137
				c-0.479,0-0.943,0.062-1.392,0.17C254.467,320.66,254.328,321.418,254.328,322.191z"/>
			<path style="fill:#FFFFFF;" d="M296.216,327.743h89.924c0.502,0,0.908-0.407,0.908-0.908v-1.288c0-0.502-0.407-0.908-0.908-0.908
				h-89.924c-0.502,0-0.908,0.407-0.908,0.908v1.288C295.308,327.336,295.714,327.743,296.216,327.743z"/>
		</g>
		<g>
			<path style="fill:#BE1E2D;" d="M231.796,299.907v9.805c0,4.222,3.418,7.639,7.639,7.639h138.004c3.371,0,6.248-2.18,7.253-5.211
				c0.263-0.758,0.402-1.577,0.402-2.428v-9.805c0-4.222-3.433-7.639-7.655-7.639H239.436c-1.438,0-2.768,0.387-3.912,1.083
				C233.296,294.68,231.796,297.123,231.796,299.907z"/>
			<path style="fill:#7B1E2D;" d="M274.733,313.241h67.417c1.52,0,2.753-1.232,2.753-2.753v-11.353c0-1.52-1.232-2.753-2.753-2.753
				h-67.417c-1.52,0-2.753,1.232-2.753,2.753v11.353C271.98,312.009,273.213,313.241,274.733,313.241z"/>
			<g>
				<rect x="365.285" y="292.267" style="fill:#7B1E2D;" width="3.139" height="25.083"/>
				<rect x="357.057" y="292.267" style="fill:#7B1E2D;" width="3.139" height="25.083"/>
				<rect x="256.694" y="292.267" style="fill:#7B1E2D;" width="3.139" height="25.083"/>
				<rect x="248.451" y="292.267" style="fill:#7B1E2D;" width="3.139" height="25.083"/>
			</g>
			<path style="opacity:0.34;fill:#1E1C28;" d="M234.358,294.226c-0.002,0.065-0.013,0.127-0.013,0.192v9.805
				c0,4.222,3.418,7.639,7.639,7.639h138.004c1.959,0,3.737-0.751,5.091-1.962c-0.019,0.782-0.143,1.539-0.387,2.24
				c-1.005,3.031-3.882,5.211-7.253,5.211H239.436c-4.222,0-7.639-3.417-7.639-7.639v-9.805
				C231.796,297.648,232.795,295.624,234.358,294.226z"/>
			<path style="fill:#1E1C28;" d="M301.322,305.789h73.244c0.831,0,1.505-0.674,1.505-1.505v-2.135c0-0.831-0.674-1.505-1.505-1.505
				h-73.244c-0.831,0-1.505,0.674-1.505,1.505v2.135C299.816,305.115,300.49,305.789,301.322,305.789z"/>
			<path style="fill:#1E1C28;" d="M287.012,305.789h7.874c0.831,0,1.505-0.674,1.505-1.505v-2.135c0-0.831-0.674-1.505-1.505-1.505
				h-7.874c-0.831,0-1.505,0.674-1.505,1.505v2.135C285.506,305.115,286.18,305.789,287.012,305.789z"/>
		</g>
		<g>
			<path style="fill:#45446C;" d="M221.181,349.044v9.804c0,4.222,3.418,7.639,7.639,7.639h138.004c3.371,0,6.248-2.18,7.253-5.211
				c0.263-0.758,0.402-1.577,0.402-2.428v-9.804c0-4.222-3.433-7.639-7.655-7.639H228.82c-1.438,0-2.768,0.387-3.912,1.082
				C222.681,343.817,221.181,346.261,221.181,349.044z"/>
			<g>
				<rect x="354.669" y="341.405" style="fill:#E6E7E8;" width="3.139" height="25.083"/>
				<rect x="346.442" y="341.405" style="fill:#E6E7E8;" width="3.139" height="25.083"/>
				<rect x="246.078" y="341.405" style="fill:#E6E7E8;" width="3.139" height="25.083"/>
				<rect x="237.836" y="341.405" style="fill:#E6E7E8;" width="3.139" height="25.083"/>
			</g>
			<g>
				<path style="fill:#E6E7E8;" d="M255.311,358.246h84.13c1.163,0,2.106-0.943,2.106-2.106v-2.987c0-1.163-0.943-2.106-2.106-2.106
					h-84.13c-1.163,0-2.106,0.943-2.106,2.106v2.987C253.205,357.303,254.148,358.246,255.311,358.246z"/>
				<path style="fill:#E6E7E8;" d="M253.94,348.473h86.873c0.406,0,0.735-0.329,0.735-0.735v-1.042c0-0.406-0.329-0.735-0.735-0.735
					H253.94c-0.406,0-0.735,0.329-0.735,0.735v1.042C253.205,348.144,253.534,348.473,253.94,348.473z"/>
			</g>
			<path style="opacity:0.34;fill:#1E1C28;" d="M223.742,343.364c-0.002,0.065-0.013,0.127-0.013,0.192v9.804
				c0,4.222,3.418,7.639,7.639,7.639h138.004c1.959,0,3.737-0.751,5.091-1.962c-0.019,0.782-0.143,1.539-0.387,2.24
				c-1.005,3.031-3.881,5.211-7.253,5.211H228.82c-4.222,0-7.639-3.418-7.639-7.639v-9.804
				C221.181,346.785,222.179,344.761,223.742,343.364z"/>
			<path style="fill:#1E1C28;" d="M290.706,354.926h73.244c0.831,0,1.505-0.674,1.505-1.505v-2.135c0-0.831-0.674-1.505-1.505-1.505
				h-73.244c-0.831,0-1.505,0.674-1.505,1.505v2.135C289.201,354.252,289.875,354.926,290.706,354.926z"/>
			<path style="fill:#1E1C28;" d="M276.396,354.926h7.874c0.831,0,1.505-0.674,1.505-1.505v-2.135c0-0.831-0.674-1.505-1.505-1.505
				h-7.874c-0.831,0-1.505,0.674-1.505,1.505v2.135C274.891,354.252,275.565,354.926,276.396,354.926z"/>
		</g>
		<path style="fill:#FFFFFF;" d="M293.359,327.743h-7.593c-0.502,0-0.908-0.407-0.908-0.908v-1.288c0-0.502,0.407-0.908,0.908-0.908
			h7.593c0.502,0,0.908,0.407,0.908,0.908v1.288C294.268,327.336,293.861,327.743,293.359,327.743z"/>
		<g>
			<path style="fill:#F7C12E;" d="M403.095,292.026l-94.537,0.542c-3.7,0.021-6.715-2.96-6.737-6.66
				c-0.015-2.554,1.402-4.781,3.497-5.922c0.938-0.514,2.017-0.808,3.162-0.815l94.537-0.542L403.095,292.026z"/>
			<path style="fill:#FFD22E;" d="M403.068,287.426l-91.133,0.522c-3.699,0.021-6.716-2.96-6.737-6.66
				c-0.003-0.444,0.039-0.881,0.121-1.302c0.938-0.514,2.017-0.808,3.162-0.815l94.537-0.542L403.068,287.426z"/>
			<path style="fill:#FFCA61;" d="M403.095,292.026l-0.077-13.397l7.871,3.454l3.456,1.518c1.441,0.632,1.453,2.674,0.019,3.323
				l-3.439,1.557L403.095,292.026z"/>
			<path style="fill:#232944;" d="M410.926,288.482l-0.037-6.398l3.456,1.518c1.441,0.632,1.453,2.674,0.019,3.323L410.926,288.482z
				"/>
			<path style="fill:#E6E7E8;" d="M344.607,283.396L344.607,283.396c-0.007-1.252,1.002-2.272,2.254-2.28l37.151-0.213
				c1.252-0.007,2.272,1.002,2.28,2.254l0,0c0.007,1.252-1.002,2.272-2.254,2.28l-37.151,0.213
				C345.635,285.657,344.614,284.648,344.607,283.396z"/>
			<path style="fill:#E6E7E8;" d="M335.262,283.449L335.262,283.449c-0.007-1.252,1.002-2.272,2.254-2.28l2.722-0.016
				c1.252-0.007,2.272,1.002,2.28,2.254l0,0c0.007,1.252-1.002,2.272-2.254,2.28l-2.722,0.016
				C336.29,285.71,335.269,284.701,335.262,283.449z"/>
		</g>
	</g>
	<g>
		<g>
			<g>
				<g>
					<path style="fill:#6B90B9;" d="M304.165,353.773l3.267,5.018c0.402,0.618,0.284,1.438-0.277,1.917l-11.78,10.061
						c-0.84,0.717-2.115,0.56-2.755-0.34l0,0c-0.404-0.568-0.461-1.314-0.147-1.936l5.767-11.455L304.165,353.773z"/>
					<path style="fill:#FFB49D;" d="M295.882,353.319l1.571,2.48l0.789,1.238c0,0,3.921,0.733,5.918-3.265l-0.878-1.468
						l-2.534-4.212L295.882,353.319z"/>
					<path style="fill:#FF9682;" d="M295.882,353.319l1.571,2.48l0.079-0.044l5.2-3.028c0.205-0.115,0.392-0.262,0.551-0.424
						l-2.534-4.212L295.882,353.319z"/>
				</g>
				<path style="fill:#6B90B9;" d="M302.956,347.643l-13.114-22.229l-0.034-28.845l-14.647,1.472l2.487,24.749
					c-0.885,1.752-0.891,3.902,0.18,5.718l0.475,0.806l0.26,2.583c0.241,2.401,1.952,4.293,4.149,4.89l9.978,16.913
					c0.827,1.402,2.635,1.869,4.038,1.041l5.188-3.06C303.317,350.854,303.783,349.046,302.956,347.643z"/>
			</g>
			<g>
				<g>
					<path style="fill:#6B90B9;" d="M280.934,367.188l0.388,5.975c0.048,0.736-0.458,1.393-1.181,1.535l-15.199,2.996
						c-1.084,0.214-2.118-0.548-2.235-1.647l0,0c-0.074-0.694,0.242-1.371,0.821-1.76l10.642-7.158L280.934,367.188z"/>
					<path style="fill:#FFB49D;" d="M273.937,362.733l0.154,2.932l0.082,1.466c0,0,3.058,2.561,6.759,0.054l-0.045-1.71
						l-0.145-4.913L273.937,362.733z"/>
					<path style="fill:#FF9682;" d="M273.937,362.733l0.154,2.932h0.091l6.017-0.09c0.235,0,0.47-0.036,0.688-0.1l-0.145-4.913
						L273.937,362.733z"/>
				</g>
				<g>
					<path style="fill:#69BBE7;" d="M282.32,329.698l5.516-33.895l-14.692-0.917l-2.121,33.961c-0.017,0.272-0.008,0.54,0.013,0.804
						c-0.219,0.637-0.34,1.319-0.328,2.031l0.468,29.246c0.026,1.628,1.367,2.927,2.995,2.901l6.022-0.096
						c1.628-0.026,2.927-1.367,2.901-2.995l-0.468-29.245C282.616,330.864,282.509,330.262,282.32,329.698z"/>
					<path style="fill:#5EA9E7;" d="M282.63,331.49l0.46,29.25c0.03,1.62-1.27,2.97-2.9,2.99l-6.02,0.1c-0.18,0-0.35-0.01-0.52-0.04
						l3.57-0.06c1.62-0.02,2.92-1.37,2.9-2.99l-0.47-29.25c-0.01-0.63-0.12-1.23-0.31-1.79l5.52-33.9l-11.73-0.73l0.01-0.18
						l14.7,0.91l-5.52,33.9C282.51,330.26,282.62,330.86,282.63,331.49z"/>
				</g>
			</g>
		</g>
		<g>
			<g>
				<path style="fill:#FF9682;" d="M230.795,279.94c0.448-1.655,1.983-2.872,3.697-2.919c1.403-0.038,2.592,0.618,3.323,1.615
					c0.587,0.801,1.538,1.255,2.526,1.355l15.738,1.594c1.139,0.115,2.285-0.127,3.28-0.692l16.553-9.411
					c1.23-0.699,2.602-0.173,3.049,1.169l0,0c0.447,1.342-0.193,3.012-1.423,3.711l-17.769,10.102
					c-0.172,0.098-0.35,0.167-0.532,0.221c-0.363,0.143-0.76,0.215-1.176,0.173l-20.882-2.115c-0.269-0.027-0.517-0.106-0.752-0.209
					c-0.706,0.36-1.522,0.519-2.366,0.397C231.727,284.596,230.159,282.292,230.795,279.94z"/>
				<path style="fill:#F4BD37;" d="M269.897,280.992l-2.959-3.951c-0.618-0.825-0.45-1.995,0.375-2.613l6.963-5.215
					c1.916-1.435,4.632-1.045,6.067,0.871v0c1.435,1.916,1.045,4.632-0.871,6.067l-6.963,5.215
					C271.685,281.985,270.515,281.817,269.897,280.992z"/>
			</g>
			<g>
				<path style="fill:#FFCF4D;" d="M280.447,265.921L280.447,265.921c3.266,0,6.063,2.342,6.635,5.558l4.043,22.703
					c0.486,2.726-1.611,5.229-4.38,5.229h-12.492c-2.761,0-4.856-2.489-4.384-5.21l3.938-22.694
					C274.367,268.279,277.17,265.921,280.447,265.921z"/>
				<path style="fill:#FFC23B;" d="M286.75,299.41h-3.07c2.77,0,4.87-2.5,4.38-5.23l-4.04-22.7c-0.48-2.7-2.52-4.78-5.1-5.37
					c0.49-0.13,1.01-0.19,1.53-0.19c3.26,0,6.06,2.34,6.63,5.56l4.05,22.7C291.61,296.91,289.51,299.41,286.75,299.41z"/>
			</g>
			<g>
				<path style="fill:#FFB49D;" d="M283.821,275.656c-0.755-1.207-0.55-3.019,0.457-4.026l0,0c1.007-1.007,2.449-0.843,3.204,0.364
					l11.406,18.228c0.105,0.167,0.182,0.343,0.243,0.522c0.159,0.357,0.247,0.75,0.222,1.167l-1.081,18.388
					c-0.075,1.281,0.104,2.551,0.312,3.817c0.122,0.741,0.035,1.534-0.313,2.3c-0.66,1.449-2.183,2.389-3.773,2.306
					c-2.615-0.136-4.307-2.587-3.684-4.979c0.165-0.631,0.473-1.185,0.881-1.637c1.065-1.18,1.578-2.759,1.671-4.346l0.795-13.515
					c0.072-1.226-0.239-2.445-0.891-3.486L283.821,275.656z"/>
				<path style="fill:#FFCF4D;" d="M292.6,280.171l-4.16,2.656c-0.869,0.555-2.023,0.3-2.577-0.569l-4.682-7.332
					c-1.288-2.017-0.697-4.697,1.32-5.986l0,0c2.018-1.288,4.697-0.697,5.986,1.32l4.682,7.332
					C293.724,278.462,293.469,279.616,292.6,280.171z"/>
			</g>
		</g>
		<g>
			<path style="fill:#FFAA82;" d="M282.937,260.272v6.867c0,1.276-1.031,2.316-2.307,2.316c-1.276,0-2.316-1.04-2.316-2.316v-6.867
				H282.937z"/>
			<path style="fill:#FF9682;" d="M282.937,260.272v3.04c-0.832,1.149-2.199,1.9-3.737,1.9c-0.299,0-0.597-0.018-0.887-0.072v-4.868
				H282.937z"/>
			<path style="fill:#FFB49D;" d="M278.858,263.793L278.858,263.793c-3.547,0-6.423-2.876-6.423-6.423v-6.882h11.068v8.66
				C283.503,261.714,281.423,263.793,278.858,263.793z"/>
			<g>
				<path style="fill:#3B312E;" d="M283.493,257.267c0,0.003,1.332-0.561,1.421-0.615c0.917-0.558,1.647-1.398,1.926-2.45
					c0.313-1.178,0.072-2.4-0.095-3.58c-0.164-1.159-0.163-2.351,0.113-3.493c0.453-1.869-0.137-2.965-1.802-3.85
					c-2.953-1.571-6.836-2.288-9.976-0.845c-0.877,0.403-1.669,0.977-2.33,1.681c-3.007,3.201-4.999,2.71-6.054,1.923
					c-0.328-0.245-0.775,0.054-0.694,0.455c0.519,2.542,2.265,7.403,7.97,6.262c4.815-0.963,6.446-1.653,6.994-2.032
					c0.247-0.171,0.567-0.165,0.814,0.006c0.64,0.443,1.628,1.263,1.73,2.16C283.512,252.89,283.493,257.262,283.493,257.267z"/>
				<path style="fill:#332A27;" d="M286.84,254.2c-0.28,1.05-1.01,1.89-1.93,2.45c-0.08,0.06-1.42,0.62-1.42,0.62
					c0-0.01,0.02-4.38,0.02-4.38c-0.1-0.9-1.09-1.72-1.73-2.16c-0.24-0.17-0.57-0.18-0.81-0.01c-0.55,0.38-2.18,1.07-7,2.04
					c-5.7,1.14-7.45-3.72-7.97-6.27c-0.08-0.4,0.37-0.7,0.7-0.45c0.46,0.35,1.1,0.63,1.93,0.58c0.47,0.96,1.26,1.76,2.22,2.22
					c1.8,0.84,3.92,0.49,5.8-0.12c0.9-0.3,1.79-0.65,2.73-0.8c0.93-0.15,1.94-0.08,2.74,0.43c0.66,0.41,1.1,1.07,1.59,1.67
					c0.49,0.6,1.07,1.19,1.83,1.35c0.43,0.1,0.93-0.01,1.28-0.27C286.97,252.13,287.11,253.19,286.84,254.2z"/>
			</g>
		</g>
		<g>
			<path style="fill:#F7C12E;" d="M231.361,275.42l5.695,9.181c0.223,0.359,0.112,0.831-0.247,1.054
				c-0.248,0.154-0.549,0.149-0.786,0.013c-0.106-0.061-0.199-0.148-0.268-0.26l-5.695-9.181L231.361,275.42z"/>
			<path style="fill:#FFD22E;" d="M230.915,275.697l5.49,8.85c0.223,0.359,0.112,0.831-0.247,1.054
				c-0.043,0.027-0.088,0.049-0.134,0.066c-0.106-0.061-0.199-0.148-0.268-0.26l-5.695-9.181L230.915,275.697z"/>
			<path style="fill:#FFCA61;" d="M231.361,275.42l-1.301,0.807l-0.133-0.973l-0.058-0.427c-0.024-0.178,0.174-0.301,0.323-0.2
				l0.357,0.242L231.361,275.42z"/>
			<path style="fill:#232944;" d="M230.549,274.868l-0.621,0.385l-0.058-0.427c-0.024-0.178,0.174-0.301,0.323-0.2L230.549,274.868z
				"/>
			<path style="fill:#E6E7E8;" d="M234.062,281.603l-0.103,0.064c-0.093,0.058-0.215,0.029-0.273-0.064l-2.302-3.711
				c-0.058-0.093-0.029-0.215,0.064-0.273l0.103-0.064c0.093-0.058,0.215-0.029,0.273,0.064l2.302,3.711
				C234.184,281.423,234.155,281.545,234.062,281.603z"/>
			<path style="fill:#E6E7E8;" d="M234.625,282.51l-0.103,0.064c-0.093,0.058-0.216,0.029-0.273-0.064l-0.228-0.367
				c-0.058-0.093-0.029-0.215,0.064-0.273l0.103-0.064c0.093-0.058,0.216-0.029,0.273,0.064l0.228,0.367
				C234.747,282.33,234.718,282.453,234.625,282.51z"/>
		</g>
	</g>
	<g>
		<g>
			<g>
				<path style="fill:#FC5C43;" d="M328.682,192.805l-3.267,5.018c-0.402,0.618-0.284,1.438,0.277,1.917l11.78,10.061
					c0.84,0.718,2.115,0.56,2.755-0.34l0,0c0.404-0.568,0.461-1.314,0.147-1.936l-5.767-11.455L328.682,192.805z"/>
				<path style="fill:#FFB49D;" d="M336.965,192.351l-1.571,2.48l-0.789,1.238c0,0-3.921,0.733-5.918-3.265l0.878-1.468l2.534-4.212
					L336.965,192.351z"/>
				<path style="fill:#FF9682;" d="M336.965,192.351l-1.571,2.48l-0.079-0.044l-5.2-3.028c-0.205-0.115-0.392-0.262-0.551-0.424
					l2.534-4.212L336.965,192.351z"/>
			</g>
			<path style="fill:#341E57;" d="M356.375,163.5c-0.537-2.229-2.402-4-4.812-4.293l-33.778-4.109l-1.778,14.613l24.826,0.549
				l-10.136,17.181c-0.827,1.402-0.361,3.21,1.041,4.038l5.188,3.061c1.402,0.827,3.21,0.361,4.038-1.041l14.862-25.192
				C356.718,166.794,356.86,165.052,356.375,163.5z"/>
		</g>
		<g>
			<g>
				<path style="fill:#FC5C43;" d="M339.762,209.032l-0.388,5.975c-0.048,0.736,0.458,1.393,1.181,1.536l15.199,2.996
					c1.084,0.214,2.118-0.548,2.235-1.647l0,0c0.074-0.693-0.242-1.371-0.821-1.76l-10.642-7.158L339.762,209.032z"/>
				<path style="fill:#FFB49D;" d="M346.759,204.577l-0.154,2.932l-0.082,1.466c0,0-3.058,2.561-6.759,0.054l0.045-1.71l0.145-4.913
					L346.759,204.577z"/>
				<path style="fill:#FF9682;" d="M346.759,204.577l-0.154,2.932h-0.091l-6.017-0.09c-0.235,0-0.47-0.036-0.688-0.1l0.145-4.913
					L346.759,204.577z"/>
			</g>
			<g>
				<path style="fill:#4E2357;" d="M349.348,170.745c-0.455-1.662-1.655-3.098-3.381-3.777l-31.665-12.455l-1.922,4.888
					c-1.856,4.719,0.766,10.009,5.645,11.39l19.996,5.659l-0.418,26.129c-0.026,1.628,1.273,2.969,2.901,2.995l6.022,0.096
					c1.628,0.026,2.969-1.273,2.995-2.901l0.468-29.246C350.004,172.525,349.77,171.58,349.348,170.745z"/>
				<path style="fill:#471D4D;" d="M349.5,203.07c-0.18,1.49-1.45,2.63-2.98,2.6l-6.02-0.09c-1.63-0.03-2.92-1.37-2.9-3l0.42-26.13
					l-20-5.66c-4.88-1.38-7.5-6.67-5.64-11.39l1.92-4.89l1.34,0.53l-0.7,1.78c-1.85,4.72,0.77,10.01,5.65,11.39l19.99,5.66
					l-0.42,26.12c-0.02,1.63,1.28,2.97,2.91,3l6.02,0.1C349.23,203.09,349.36,203.08,349.5,203.07z"/>
			</g>
		</g>
		<g>
			<g>
				<path style="fill:#FF9682;" d="M371.883,141.053c-0.448-1.655-1.983-2.872-3.697-2.919c-1.403-0.038-2.592,0.618-3.323,1.615
					c-0.587,0.801-1.538,1.255-2.526,1.355l-15.738,1.594c-1.139,0.115-2.285-0.127-3.28-0.692l-16.553-9.411
					c-1.23-0.699-2.602-0.173-3.049,1.169l0,0c-0.447,1.342,0.193,3.012,1.423,3.711l17.769,10.102
					c0.172,0.098,0.35,0.167,0.532,0.221c0.363,0.144,0.76,0.215,1.176,0.173l20.882-2.115c0.269-0.027,0.517-0.106,0.752-0.209
					c0.706,0.36,1.522,0.519,2.366,0.397C370.952,145.708,372.52,143.405,371.883,141.053z"/>
				<path style="fill:#FC4843;" d="M332.781,142.104l2.959-3.951c0.618-0.825,0.45-1.995-0.375-2.612l-6.963-5.215
					c-1.916-1.435-4.632-1.045-6.067,0.871v0c-1.435,1.916-1.045,4.632,0.871,6.067l6.963,5.215
					C330.994,143.097,332.163,142.929,332.781,142.104z"/>
			</g>
			<g>
				<path style="fill:#FC5C43;" d="M322.231,127.034L322.231,127.034c-3.266,0-6.063,2.342-6.635,5.558l-4.043,22.704
					c-0.486,2.727,1.611,5.229,4.38,5.229h12.492c2.761,0,4.856-2.489,4.384-5.21l-3.938-22.693
					C328.311,129.392,325.509,127.034,322.231,127.034z"/>
				<path style="fill:#FC4A36;" d="M314.43,155.3c-0.49,2.72,1.61,5.22,4.38,5.22h-2.88c-2.77,0-4.86-2.5-4.38-5.22l4.05-22.71
					c0.57-3.21,3.36-5.56,6.63-5.56c0.49,0,0.97,0.05,1.44,0.16c-2.62,0.57-4.71,2.67-5.2,5.4L314.43,155.3z"/>
			</g>
			<g>
				<path style="fill:#FFB49D;" d="M319.061,137.278c0.931-1.078,1.004-2.9,0.162-4.049l0,0c-0.842-1.149-2.292-1.207-3.222-0.129
					l-14.054,16.274c-0.129,0.149-0.232,0.311-0.32,0.479c-0.211,0.328-0.358,0.704-0.398,1.119l-1.736,18.338
					c-0.121,1.277-0.492,2.505-0.891,3.724c-0.234,0.714-0.269,1.511-0.041,2.321c0.431,1.533,1.793,2.694,3.377,2.854
					c2.605,0.264,4.652-1.9,4.401-4.359c-0.066-0.649-0.287-1.243-0.621-1.752c-0.872-1.329-1.139-2.968-0.989-4.551l1.276-13.478
					c0.116-1.223,0.609-2.38,1.412-3.309L319.061,137.278z"/>
				<path style="fill:#FC5C43;" d="M309.695,140.401l3.706,3.26c0.774,0.681,1.953,0.605,2.634-0.169l5.746-6.532
					c1.581-1.797,1.405-4.536-0.392-6.117l0,0c-1.797-1.581-4.536-1.406-6.117,0.392l-5.746,6.532
					C308.846,138.541,308.921,139.72,309.695,140.401z"/>
			</g>
			<g>
				<path style="fill:#232944;" d="M371.141,136.608L366,147.782c-0.499,1.085-1.787,1.561-2.877,1.06l-7.609-3.501
					c-0.947-0.436-1.433-1.47-1.21-2.442c0.029-0.149,0.077-0.289,0.143-0.432l5.141-11.174c0.499-1.085,1.787-1.561,2.877-1.06
					l7.609,3.501c0.36,0.166,0.653,0.418,0.865,0.722C371.371,135.064,371.475,135.883,371.141,136.608z"/>
				<path style="fill:#45446C;" d="M370.795,134.893l-5.139,11.169c-0.499,1.085-1.787,1.561-2.877,1.06l-7.609-3.501
					c-0.36-0.166-0.653-0.418-0.865-0.722c0.029-0.149,0.077-0.289,0.143-0.432l5.141-11.174c0.499-1.085,1.787-1.561,2.877-1.06
					l7.609,3.501c0.36,0.166,0.653,0.418,0.865,0.722C370.91,134.605,370.86,134.75,370.795,134.893z"/>
				<path style="fill:#F2D18F;" d="M368.488,137.183l-1.149,2.498c-0.293,0.637-1.046,0.912-1.683,0.619l-5.305-2.441
					c-0.591-0.272-0.869-0.931-0.677-1.531c0.017-0.048,0.035-0.101,0.057-0.147l1.149-2.498c0.291-0.633,1.042-0.914,1.679-0.621
					l5.305,2.441c0.143,0.066,0.266,0.151,0.368,0.259C368.594,136.125,368.715,136.689,368.488,137.183z"/>
				<path style="fill:#FCE6B5;" d="M368.173,135.909l-1.149,2.498c-0.293,0.637-1.042,0.914-1.679,0.621l-5.305-2.441
					c-0.143-0.066-0.264-0.155-0.368-0.259c0.017-0.048,0.035-0.101,0.057-0.147l1.149-2.498c0.291-0.633,1.042-0.914,1.679-0.621
					l5.305,2.441c0.143,0.066,0.266,0.151,0.368,0.259C368.214,135.81,368.195,135.863,368.173,135.909z"/>
				<path style="fill:#E6E7E8;" d="M356.41,141.061l-0.083-0.038c-0.16-0.074-0.23-0.263-0.157-0.424l3.17-6.889
					c0.074-0.16,0.263-0.23,0.424-0.157l0.083,0.038c0.16,0.074,0.23,0.263,0.157,0.424l-3.17,6.889
					C356.76,141.064,356.571,141.134,356.41,141.061z"/>
				<path style="fill:#E6E7E8;" d="M360.299,132.389l0.083,0.038c0.16,0.074,0.23,0.263,0.157,0.424l-0.123,0.268
					c-0.074,0.16-0.263,0.23-0.424,0.157l-0.083-0.038c-0.16-0.074-0.23-0.263-0.157-0.424l0.123-0.268
					C359.949,132.386,360.139,132.316,360.299,132.389z"/>
				<path style="fill:#FFFFFF;" d="M366.838,135.749l-0.021,0.046c-0.041,0.089-0.146,0.128-0.234,0.087l-3.814-1.755
					c-0.089-0.041-0.128-0.146-0.087-0.234l0.021-0.046c0.041-0.089,0.146-0.127,0.234-0.087l3.814,1.755
					C366.84,135.555,366.879,135.66,366.838,135.749z"/>
				<path style="fill:#FFFFFF;" d="M362.037,133.596l0.021-0.046c0.041-0.089,0.146-0.128,0.235-0.087l0.148,0.068
					c0.089,0.041,0.128,0.146,0.087,0.234l-0.021,0.046c-0.041,0.089-0.146,0.128-0.235,0.087l-0.148-0.068
					C362.035,133.789,361.997,133.684,362.037,133.596z"/>
			</g>
		</g>
		<g>
			<path style="fill:#FFAA82;" d="M319.742,121.384v6.867c0,1.276,1.031,2.316,2.307,2.316c1.276,0,2.316-1.04,2.316-2.316v-6.867
				H319.742z"/>
			<path style="fill:#FF9682;" d="M319.742,121.384v3.04c0.832,1.149,2.199,1.9,3.737,1.9c0.299,0,0.597-0.018,0.887-0.072v-4.868
				H319.742z"/>
			<path style="fill:#FFB49D;" d="M323.821,124.906L323.821,124.906c3.547,0,6.423-2.876,6.423-6.423v-6.882h-11.068v8.66
				C319.176,122.826,321.255,124.906,323.821,124.906z"/>
			<g>
				<path style="fill:#3B312E;" d="M331.99,103.815c-1.004,0-1.938,0.293-2.729,0.793c-0.506-0.423-1.062-0.784-1.663-1.06
					c-3.14-1.444-7.023-0.726-9.976,0.845c-1.665,0.886-2.255,1.981-1.802,3.85c0.277,1.142,0.277,2.334,0.113,3.493
					c-0.167,1.18-0.408,2.402-0.095,3.58c0.279,1.051,1.009,1.891,1.926,2.45c0.088,0.054,1.421,0.618,1.421,0.615
					c0-0.005-0.019-4.377-0.019-4.377c0.103-0.897,1.09-1.717,1.73-2.16c0.247-0.171,0.567-0.177,0.814-0.006
					c0.548,0.379,2.179,1.069,6.994,2.032c0.899,0.18,1.689,0.197,2.402,0.111c0.287,0.05,0.581,0.081,0.883,0.081
					c2.829,0,5.123-2.294,5.123-5.123C337.113,106.108,334.82,103.815,331.99,103.815z"/>
				<path style="fill:#332A27;" d="M337.11,108.94c0,2.83-2.29,5.12-5.12,5.12c-0.3,0-0.59-0.03-0.88-0.08
					c-0.72,0.09-1.51,0.07-2.4-0.11c-4.82-0.96-6.45-1.65-7-2.03c-0.25-0.17-0.57-0.17-0.81,0c-0.64,0.45-1.63,1.27-1.73,2.16
					c0,0,0.02,4.37,0.02,4.38c0,0-1.34-0.56-1.43-0.61c-0.91-0.56-1.64-1.4-1.92-2.45c-0.31-1.18-0.07-2.4,0.09-3.58
					c0.02-0.14,0.04-0.28,0.05-0.43c0.92,0.16,1.9-0.02,2.67-0.54c0.56-0.39,1.02-0.94,1.63-1.24c0.96-0.47,2.1-0.27,3.13,0.01
					c1.18,0.32,2.33,0.73,3.51,1.04c1.18,0.32,2.41,0.54,3.63,0.47s2.44-0.45,3.39-1.22c0.95-0.78,1.58-1.97,1.52-3.19
					c-0.04-0.89-0.49-1.76-1.19-2.29C335.96,105.19,337.11,106.93,337.11,108.94z"/>
			</g>
		</g>
	</g>
</g>
<g id="DESIGNED_BY_FREEPIK">
	<g>
		<g id="XMLID_319_">
			<g id="XMLID_338_">
				<path id="XMLID_346_" style="fill:#231F20;" d="M252.819,465.465c-0.433,0.443-0.804,0.932-1.109,1.453l-0.465-0.241
					c-0.067-0.297-0.35-0.502-0.659-0.466c-0.331,0.039-0.567,0.339-0.529,0.67c0.039,0.331,0.339,0.567,0.67,0.528
					c0.065-0.007,0.127-0.025,0.184-0.052l0.451,0.234c-0.251,0.554-0.433,1.139-0.539,1.743l0.747,0.132
					c0.229-1.306,0.849-2.507,1.792-3.473L252.819,465.465z"/>
				<path id="XMLID_345_" style="fill:#231F20;" d="M258.306,463.164c-0.171,0-0.341,0.006-0.509,0.017l-0.074-0.626
					c0.188-0.149,0.296-0.389,0.266-0.645c-0.046-0.393-0.402-0.674-0.795-0.628c-0.394,0.046-0.675,0.402-0.628,0.796
					c0.03,0.254,0.19,0.461,0.404,0.563l0.073,0.624c-0.714,0.116-1.402,0.332-2.06,0.646l0.327,0.685
					c0.935-0.447,1.941-0.674,2.995-0.674c0.497,0,0.993,0.053,1.476,0.158l0.16-0.741
					C259.407,463.222,258.857,463.164,258.306,463.164z"/>
				<path id="XMLID_344_" style="fill:#231F20;" d="M264.909,465.711c0.331-0.04,0.566-0.341,0.525-0.672
					c-0.04-0.331-0.341-0.566-0.672-0.525c-0.31,0.038-0.535,0.304-0.53,0.608l-0.416,0.363c-0.418-0.43-0.89-0.813-1.407-1.14
					l-0.404,0.642c1.135,0.715,2.021,1.727,2.564,2.925l0.69-0.313c-0.251-0.554-0.567-1.071-0.942-1.545l0.402-0.351
					C264.78,465.715,264.843,465.719,264.909,465.711z"/>
				<path id="XMLID_343_" style="fill:#231F20;" d="M257.759,473.372c-0.386,0.023-0.775,0.035-1.157,0.035
					c-0.88,0-1.733-0.061-2.479-0.18c-0.391-0.062-0.846-0.154-1.27-0.292c1.047,1.861,3.069,3.125,5.389,3.125
					c2.855,0,5.263-1.916,5.949-4.503c-0.682,0.449-1.505,0.825-2.458,1.122C260.553,473.047,259.178,473.287,257.759,473.372z"/>
				<path id="XMLID_339_" style="fill:#231F20;" d="M258.306,464.68c-3.352,0-6.079,2.666-6.079,5.943
					c0,0.425,0.046,0.849,0.137,1.261c0.674,0.483,2.706,0.891,5.348,0.731c2.88-0.174,5.297-0.958,6.672-2.159
					c-0.005-0.194-0.02-0.39-0.045-0.581C263.958,466.914,261.365,464.68,258.306,464.68z M256.147,471.195
					c-1.02,0-1.85-0.83-1.85-1.85c0-1.021,0.83-1.851,1.85-1.851c1.02,0,1.85,0.83,1.85,1.851
					C257.997,470.365,257.167,471.195,256.147,471.195z M260.884,470.287c-0.75,0-1.36-0.61-1.36-1.36s0.61-1.36,1.36-1.36
					s1.36,0.61,1.36,1.36S261.634,470.287,260.884,470.287z"/>
			</g>
			<path id="XMLID_336_" style="fill:#231F20;" d="M274.31,466.547c-0.295-0.116-0.806-0.31-1.383-0.238
				c-0.551,0.069-0.844,0.341-0.844,1.007v0.866h2.229v1.717h-2.229v5.455h-1.932v-5.455h-1.339v-1.717h1.339v-0.889
				c0-1.68,0.896-2.782,2.568-2.782c0.643,0,1.157,0.121,1.59,0.308V466.547z"/>
			<path id="XMLID_334_" style="fill:#231F20;" d="M279.012,469.878c-0.177-0.029-0.357-0.046-0.525-0.046
				c-0.896,0-1.51,0.548-1.51,1.613v3.908h-1.933v-7.172h1.873v0.784c0.451-0.673,1.14-0.977,2.021-0.977
				c0.414,0,0.848,0.128,1.095,0.337L279.012,469.878z"/>
			<path id="XMLID_331_" style="fill:#231F20;" d="M286.68,471.757c0,0.222-0.016,0.488-0.037,0.651h-5.085
				c0.207,1.036,0.933,1.487,1.843,1.487c0.622,0,1.295-0.252,1.813-0.689l1.133,1.243c-0.815,0.748-1.851,1.089-3.057,1.089
				c-2.198,0-3.724-1.496-3.724-3.753c0-2.258,1.48-3.797,3.627-3.797C285.258,467.99,286.672,469.522,286.68,471.757z
				 M281.566,471.091h3.175c-0.178-0.918-0.732-1.437-1.561-1.437C282.269,469.655,281.736,470.203,281.566,471.091z"/>
			<path id="XMLID_328_" style="fill:#231F20;" d="M294.333,471.757c0,0.222-0.016,0.488-0.037,0.651h-5.085
				c0.207,1.036,0.933,1.487,1.843,1.487c0.622,0,1.296-0.252,1.814-0.689l1.133,1.243c-0.814,0.748-1.851,1.089-3.058,1.089
				c-2.198,0-3.723-1.496-3.723-3.753c0-2.258,1.48-3.797,3.627-3.797C292.912,467.99,294.326,469.522,294.333,471.757z
				 M289.219,471.091h3.175c-0.178-0.918-0.733-1.437-1.562-1.437C289.922,469.655,289.389,470.203,289.219,471.091z"/>
			<path id="XMLID_325_" style="fill:#231F20;" d="M302.679,471.764c0,2.154-1.495,3.775-3.472,3.775
				c-0.962,0-1.643-0.378-2.109-0.933v3.708h-1.925v-10.133h1.888v0.792c0.467-0.585,1.154-0.984,2.139-0.984
				C301.184,467.99,302.679,469.611,302.679,471.764z M297.001,471.764c0,1.133,0.748,1.977,1.844,1.977
				c1.14,0,1.85-0.881,1.85-1.977c0-1.095-0.71-1.976-1.85-1.976C297.749,469.789,297.001,470.632,297.001,471.764z"/>
			<path id="XMLID_322_" style="fill:#231F20;" d="M305.783,465.836c0,0.696-0.541,1.229-1.236,1.229
				c-0.696,0-1.228-0.533-1.228-1.229c0-0.695,0.532-1.243,1.228-1.243C305.242,464.592,305.783,465.14,305.783,465.836z
				 M305.523,475.354h-1.932v-7.172h1.932V475.354z"/>
			<path id="XMLID_320_" style="fill:#231F20;" d="M308.747,470.736l2.702-2.554h2.368l-3.479,3.375l3.501,3.797h-2.376
				l-2.717-2.901v2.901h-1.932v-10.658h1.932V470.736z"/>
		</g>
		<g>
			<path style="fill:#231F20;" d="M177.127,475.29v-1.055c-0.527,0.718-1.391,1.23-2.387,1.23c-1.846,0-3.149-1.406-3.149-3.706
				c0-2.256,1.289-3.721,3.149-3.721c0.952,0,1.816,0.469,2.387,1.245v-3.765h1.099v9.771H177.127z M177.127,473.371v-3.208
				c-0.395-0.615-1.245-1.143-2.124-1.143c-1.42,0-2.27,1.172-2.27,2.739c0,1.567,0.85,2.725,2.27,2.725
				C175.882,474.484,176.732,473.986,177.127,473.371z"/>
			<path style="fill:#231F20;" d="M179.646,471.745c0-2.051,1.465-3.706,3.486-3.706c2.139,0,3.398,1.67,3.398,3.794v0.278h-5.727
				c0.088,1.333,1.025,2.446,2.549,2.446c0.806,0,1.626-0.322,2.182-0.894l0.527,0.718c-0.703,0.703-1.655,1.084-2.812,1.084
				C181.155,475.465,179.646,473.957,179.646,471.745z M183.118,468.947c-1.509,0-2.256,1.274-2.314,2.358h4.644
				C185.433,470.25,184.729,468.947,183.118,468.947z"/>
			<path style="fill:#231F20;" d="M187.322,474.352l0.571-0.791c0.469,0.542,1.362,1.011,2.329,1.011c1.084,0,1.67-0.513,1.67-1.216
				c0-1.714-4.38-0.659-4.38-3.281c0-1.099,0.952-2.036,2.636-2.036c1.202,0,2.051,0.454,2.623,1.025l-0.513,0.762
				c-0.424-0.513-1.201-0.894-2.109-0.894c-0.966,0-1.567,0.483-1.567,1.113c0,1.553,4.379,0.527,4.379,3.281
				c0,1.187-0.952,2.139-2.783,2.139C189.021,475.465,188.039,475.114,187.322,474.352z"/>
			<path style="fill:#231F20;" d="M194.192,466.471c0-0.41,0.337-0.747,0.732-0.747c0.41,0,0.747,0.337,0.747,0.747
				c0,0.41-0.337,0.732-0.747,0.732C194.529,467.204,194.192,466.881,194.192,466.471z M194.382,475.29v-7.075h1.099v7.075H194.382z
				"/>
			<path style="fill:#231F20;" d="M197.297,477.106l0.556-0.82c0.586,0.703,1.289,0.967,2.3,0.967c1.172,0,2.27-0.571,2.27-2.124
				v-1.011c-0.513,0.718-1.377,1.26-2.373,1.26c-1.846,0-3.149-1.377-3.149-3.662c0-2.271,1.289-3.677,3.149-3.677
				c0.952,0,1.802,0.469,2.373,1.245v-1.069h1.099v6.87c0,2.344-1.641,3.076-3.369,3.076
				C198.952,478.161,198.131,477.925,197.297,477.106z M202.423,473.253v-3.091c-0.381-0.615-1.23-1.143-2.109-1.143
				c-1.421,0-2.27,1.128-2.27,2.695c0,1.553,0.849,2.695,2.27,2.695C201.193,474.411,202.042,473.869,202.423,473.253z"/>
			<path style="fill:#231F20;" d="M210.128,475.29v-4.629c0-1.245-0.63-1.641-1.582-1.641c-0.864,0-1.685,0.527-2.094,1.099v5.171
				h-1.099v-7.075h1.099v1.025c0.497-0.586,1.464-1.201,2.519-1.201c1.48,0,2.256,0.747,2.256,2.285v4.966H210.128z"/>
			<path style="fill:#231F20;" d="M212.647,471.745c0-2.051,1.465-3.706,3.486-3.706c2.139,0,3.398,1.67,3.398,3.794v0.278h-5.727
				c0.088,1.333,1.025,2.446,2.548,2.446c0.806,0,1.626-0.322,2.183-0.894l0.527,0.718c-0.703,0.703-1.655,1.084-2.813,1.084
				C214.156,475.465,212.647,473.957,212.647,471.745z M216.119,468.947c-1.509,0-2.256,1.274-2.314,2.358h4.643
				C218.433,470.25,217.73,468.947,216.119,468.947z"/>
			<path style="fill:#231F20;" d="M226.065,475.29v-1.055c-0.527,0.718-1.392,1.23-2.388,1.23c-1.845,0-3.149-1.406-3.149-3.706
				c0-2.256,1.288-3.721,3.149-3.721c0.952,0,1.817,0.469,2.388,1.245v-3.765h1.098v9.771H226.065z M226.065,473.371v-3.208
				c-0.396-0.615-1.245-1.143-2.124-1.143c-1.421,0-2.27,1.172-2.27,2.739c0,1.567,0.85,2.725,2.27,2.725
				C224.82,474.484,225.669,473.986,226.065,473.371z"/>
			<path style="fill:#231F20;" d="M232.407,475.29v-9.771h1.099v3.765c0.571-0.776,1.421-1.245,2.388-1.245
				c1.845,0,3.149,1.465,3.149,3.721c0,2.3-1.304,3.706-3.149,3.706c-0.996,0-1.86-0.513-2.388-1.23v1.055H232.407z
				 M235.615,474.484c1.436,0,2.285-1.157,2.285-2.725c0-1.567-0.85-2.739-2.285-2.739c-0.864,0-1.729,0.527-2.109,1.143v3.208
				C233.886,473.986,234.75,474.484,235.615,474.484z"/>
			<path style="fill:#231F20;" d="M240.243,477.062c0.161,0.073,0.425,0.117,0.6,0.117c0.483,0,0.806-0.161,1.055-0.747l0.469-1.069
				l-2.959-7.148h1.187l2.358,5.801l2.344-5.801h1.2l-3.544,8.511c-0.425,1.024-1.143,1.421-2.08,1.436
				c-0.234,0-0.601-0.044-0.806-0.104L240.243,477.062z"/>
		</g>
	</g>
</g>
</svg>
